<svg xmlns="http://www.w3.org/2000/svg" viewBox="0 0 100 100">
    <path fill="#E61006" d="M-.6 50V24.5H99.6V76H-.6V50zM21 61.4c.5 0 1-.5 1.5-1l.2-.2V60l-.2-.4-.4.3c-.2.3-1 1-2 .4-1-.3-1.5-1.7-1.5-4 0-2.2.6-3.3 2-3.3.8 0 1 .6 1.4 1.7 0 .3 0 .3.2.3h.4c.2 0 .2 0 .2-1v-1H22c-1-.3-2-.3-3 0-2 .4-3 2-3 4.3 0 2 1 3.5 2.3 4 .8.6 2 .6 2.8.3zm9 0c.7 0 1-.4 1.6-.8 1-1 1.6-2.7 1.4-4.4-.4-2.2-2-3.6-4.3-3.6-2.6 0-4.2 1.8-4.2 4.6 0 2 1 3.6 2.6 4.3 1 .3 2 .3 3 0zm-2-.7c-.8-.5-1.3-2-1.3-4.2 0-1.4.2-2 .6-2.7 1-1 2.4-.6 3 1 .4.8.6 1.5.6 2.7 0 1.7-.8 2.8-1.6 3.3-.5.2-1 .2-1.6 0zm24 .8c.8-.2 2-1 2.4-1.8.5-1 .8-2.3.6-3.4-.4-2.2-1.8-3.6-4-3.7-1.4 0-2.5.3-3.3 1-.8 1-1.2 2-1.2 3.6 0 3.2 2.3 5 5.4 4.4zm-1.8-.7c-1-.5-1.5-2-1.5-4.3 0-1.7.3-2.5 1-3 .3-.3 1-.3 1.5 0 1 .5 1.7 2 1.7 4 0 1.6-.8 2.7-1.5 3.2-.4.3-1 .3-1.6 0zm34 .6c.6-.3 1.3-1 1.5-1.6.2-.5.2-1.3 0-1.7-.2-.3-.8-1-2.5-2l-1-1V54c.4-.4 1-.6 1.6-.4.4 0 .6.3.8 1 0 .3.2.4.3.4h.4V53c-.2 0-.6 0-1-.3-2.6-.5-4 .4-4 2.5 0 1.2.3 1.8 2 3 1.3.8 1.8 1.5 1.5 2 0 .6-.6.7-1.3.7-.6 0-.7 0-1-.5l-.3-.8c-.3-.6-.4-.7-1-.6-.2 0-.2 0-.2 1 0 .6 0 1 .2 1l.6.2c1.5.3 2 .3 3 0zm8.4 0c.5-.3.5-.3.6-.6 0-.3 0-.3-.2-.2h-.7c-.6 0-1 0-1.3-.6-.2-.4-.2-.6-.2-3.3v-3h2v-1h-2v-2h-1c0 .6-.5 1.5-.8 1.8l-1 .4h-.3v.5h1v3c0 3 0 3.3.6 4l.7.5c.4.3.5.3 1.3.3.5 0 1-.2 1.3-.3zm-79.4 0h.3l.2-1.2.2-1.4c0-.2 0-.2-.8-.2-.4 0-.4 0-.4.2 0 .5-.3 1-.6 1.4-.4.3-.8.4-2 .4S9 60.8 9 58v-2.5h1.2c1.6 0 1.8.2 2 1.2 0 .3 0 .3.3.3h.3v-4h-.3c-.3 0-.3 0-.4.6v.8c0 .3-1 .4-2.2.2H9V50h1c.7 0 1.4 0 1.6.2.4 0 .7.5.8 1v.6h.7V49H5c0 .4.2.5.6.6 1.2.2 1 0 1 5.6 0 5.3 0 5.4-.4 5.6l-.7.2c-.3 0-.4 0-.4.3v.3h8.5zm26.3 0c0-.3 0-.4-.5-.5-.5-.5-.6-.7-.6-3.5 0-2.6 0-2.8.5-3.4 0-.3.4-.5 1-.5 1.2 0 1.5 1 1.4 4.6 0 2.4 0 2.5-.7 2.7-.4 0-.5 0-.5.2v.2H45V61l-.3-.2c-.6 0-.8-.2-1-.6v-6c-.4-.7-.8-1-1.3-1.5-.4-.2-.5-.2-1.3-.2-1 0-1 .2-2 1l-.4.4V52H38l-2.6.3v.2h.3c.5 0 1 .4 1 .7V60c-.2.4-.5.6-1 .6H35v.3h4.5zm22-.2L61 61c-.2 0-.4-.2-.4-.3 0-.2-.2-1-.2-2.7 0-2.5 0-2.6.2-3 .4-1 1-1.3 2-1.2.3 0 .6.4.8 1 0 .4.2 1 .2 3v3c-.2 0-.4 0-.6.2-.3 0-.4.2-.4.3v.3h4V61l-.3-.2c-.6 0-.6 0-.6-3V55l.2-.4c0-.6.4-1 1-1s1 .2 1.2.7c.2.4.2.5.2 3.3v3l-.6.2s-.3 0-.3.3v.6H72V61l-.3-.2c-.5 0-.8-.2-1-.6v-3c0-2.7 0-3-.5-3.8-.2-.2-.4-.5-.7-.6-.5-.3-.6-.3-1.3-.3-.7 0-1 0-1.3.2-.5.2-1 .5-1 .8l-.8.5-.3-.5c0-.3-.3-.6-.6-.8-.4-.2-.5-.2-1.3-.2-1 0-1.2.2-2 1l-.6.4v-1.7c0-.2 0-.2-.6 0l-2.8.2v.2h.3c.5 0 .8.3 1 .6V60c-.2.4-.5.6-1 .6H57v.3h4.5zm17 .2V61l-.4-.2c-.2 0-.4-.2-.5-1.2v-7.2h-.7c-.3.2-1 .2-1.7.3h-1c0 .2 0 .5.3.5.4 0 .8.2 1 .5 0 .3.2 3.7 0 5.4 0 2 0 2-.7 2-.4 0-.5 0-.5.5h4.6zm-2-10.6c1-.5 1-2 0-2.2-1.3-.4-2.2 1.4-1 2.2.3.2.8.2 1 0zM61 46c.4 0 1-.5 1.4-1 .5-.4.6-.6.5-.8l-.5-.3H62c-1 1-2.3 1.2-3.2.4-.5-.5-1-1.7-1-2.7v-.5h5V41c0-1-.2-1.3-.6-2-.6-.8-1.5-1-2.8-1-1.6 0-3 1.2-3.2 3-.2.8-.2 1.6 0 2.3 0 .7.4 1.2 1 1.8.8 1 2 1.6 3.5 1zm-3-5.4c.3-1 .5-1.4.8-1.7.3-.7.4-.7.8-.7s.6 0 .8.2c.4.2.8 1 1 1.5v.5H61c-.2 0-1 0-1.6.2H58v-.4zm-14.2 5h-.4c-.4 0-.7-.3-1-.7V35h1c.5 0 1 .2 1.3.3.3 0 .6.5.6 1 0 .4 0 .4.3.4h.3v-2.5H36V37h.3c.3 0 .3 0 .4-.4V36c.3-.2 1-.4 2-.4h1V40c0 5.3 0 5.2-.6 5.4H39l-.2.3v.2h5v-.6zm6.4 0H50c-.3 0-.5-.3-.5-.4-.2-.2-.2-.4-.2-2.5V40c.4-.7 1-1 1.6-1 .4 0 1 .4 1 1.7V45c0 .5 0 .6-.7.7-.3 0-.4 0-.4.2h4v-.5h-.6c-.5-.2-.5-.3-.6-3.3 0-2.5 0-2.6-.5-3-.2-.5-.7-1-1.2-1.2h-1c-.5 0-1.2.4-2 1v.2-4.6l-2 .4h-1c0 .3 0 .4.5.5.5 0 .7.3.8.8V41c0 5 0 4.7-.7 4.8-.4 0-.6.2-.5.4h4V46z"/>
</svg>
