<svg xmlns="http://www.w3.org/2000/svg" viewBox="0 0 100 100">
    <path fill="#E61006" d="M-.6 50V0h101v100H-.6V50zm73.8 40l2-.5 1-7.8 1.4-9.4c.3-1.6.2-1.6-2.3-1.6s-2.7 0-2.7 1.6c0 3-1.7 7-3.7 8.7-3 2.3-5.6 3-13 3-10 0-9.6 1.2-9.8-17.6V51l7.5.3c10.2.4 11.5 1 12.5 7.5.3 2 .5 2 2.2 2h1.8V48.4l.2-12.6h-2c-1.7 0-1.8 0-2.4 3.5-.2 2-1 4-1.6 4.7-2 1.8-8 2.5-15.3 1.6l-3-.3v-29h7c4 0 8 .3 9.4.6 3 .5 4.7 3 5.2 7l.4 3h2l2-.5V10H21.4v1.6c0 1.3.3 1.5 3.4 2 7 1.5 6.7 0 6.7 36.4 0 33.3 0 33.6-3.2 35.2-1 .5-2.8 1-4.3 1.2-2.3.4-2.6.6-2.6 1.8v1.4l17.8.2c10 0 21 .2 25 .3h9.2z"/>
</svg>
