<?xml version="1.0" encoding="utf-8"?>
<!-- Generator: Adobe Illustrator 17.1.0, SVG Export Plug-In . SVG Version: 6.00 Build 0)  -->
<!DOCTYPE svg PUBLIC "-//W3C//DTD SVG 1.1//EN" "http://www.w3.org/Graphics/SVG/1.1/DTD/svg11.dtd">
<svg version="1.1" id="Layer_1" xmlns="http://www.w3.org/2000/svg" xmlns:xlink="http://www.w3.org/1999/xlink" x="0px" y="0px"
	 viewBox="0 0 1024 1024" enable-background="new 0 0 1024 1024" xml:space="preserve">
<g>
	<g>
		<g>
			<rect y="256" fill="#E3120B" width="1024" height="512"/>
		</g>
	</g>
	<g>
		<path fill="#FFFFFF" d="M475,391.2c-0.5-14.4-3.5-16.3-25.3-16.3c-1,0-2.6,0-4.7,0v82.8c0,11.3,2.9,14.4,14.1,14.7l0.3,3.9
			c-10.6-0.2-18.6-0.2-23.9-0.2c-5.4,0-13.8,0-24.7,0.2l0.3-3.9c11.2-0.3,14.1-3.3,14.1-14.7v-82.8c-2.3,0-4.2,0-5.5,0
			c-22.4,0-25.4,2-25.7,16.3l-5.6-0.3l0.6-23.4c20.6,0.2,35.9,0.3,46.1,0.3c9.8,0,24.8-0.1,44.6-0.3l0.6,23.4L475,391.2L475,391.2z
			 M551.8,475.6c-4.2,0-10.4,0.3-18.8,0.6l0.3-3.6c8-1.2,8.8-2.7,8.9-16.2v-9.5v-13.5c0-19.1-3.3-25.4-13.3-25.4
			c-5.6,0-11.3,3.5-13.8,8.8c-0.9,1.8-1.5,3.8-2.1,5.8c-0.1,0.7-0.1,1.4-0.1,1.7v22.7v9.5c0,13.5,0.9,15,8.9,16.2l0.3,3.6
			c-8.5-0.3-14.7-0.6-18.9-0.6c-4.4,0-11,0.3-19.7,0.6l0.3-3.6c10.1,0,11.5-2,11.7-16.2v-9.5v-50.1v-9.5
			c-0.2-14.2-1.5-16.2-11.7-16.2l-0.3-3.6c13.8-0.7,16.9-1.2,29.3-3.5v46.9c8-8.9,14.8-12.4,23.8-12.4c14.8,0,23,9.4,23,26.6v21.8
			v9.5c0.2,14.2,1.5,16.2,11.7,16.2l0.3,3.6C562.9,475.9,556.2,475.6,551.8,475.6L551.8,475.6z M600,433.6c0.6,23,8.9,36,22.8,36
			c8.3,0,15.3-3.8,22.7-12.4l2.3,4.2c-9.4,11.6-18.6,16.5-30.7,16.5c-21,0-35.3-15.4-35.3-38.3c0-24.4,14.7-41.2,35.9-41.2
			c11.6,0,19.8,4.2,25.4,13.5c3.8,6.4,4.8,10.7,5,21.6L600,433.6L600,433.6z M614.9,403.7c-9.1,0-13.8,7.6-15.3,24
			c13.9-0.3,18.2-0.6,32.2-2.1C630,411,624.4,403.7,614.9,403.7L614.9,403.7z M133.9,619.8c18.9,0,24.5-4.2,26.2-20.5l6.7,0.3
			l-3.9,28.2L150,628l-41.1-0.3L81,627.9l0.5-4.4c12.2-0.3,15.4-3.7,15.4-16.3v-79.3c0-12.6-3.2-15.9-15.4-16.3l-0.5-4.4l26,0.3
			l40.9-0.5l10.7,0.2l0.7,24.7l-6.7,0.5c-1.2-15.3-4-16.9-28.2-16.9c-1.3,0-2.5,0-3.7,0l-1.7,0.2v45.6c3.2,0,5.7,0.2,7.2,0.2
			c2.7,0.2,5.2,0.3,7.7,0.3c13.4,0,16.4-2.9,16.6-15.6h5.7c-0.5,10.2-0.5,15.4-0.5,20.5c0,4,0,9.7,0.2,17.3h-5.4
			c-0.7-12.1-3.4-14.4-16.3-14.6l-9.1-0.2l-6.4,0.4v35.4C118.9,619.1,119.8,619.8,133.9,619.8L133.9,619.8z M227.6,547.5
			c-12.6,0-19.1,11.2-19.1,32.9c0,25.5,7.9,39.8,22.1,39.8c7.4,0,13.6-3.2,20.1-10.2l2.5,6c-9.6,9.9-17.5,13.8-28.5,13.8
			c-22.1,0-36.6-17.3-36.6-43.6c0-27.2,15.3-44.5,39.4-44.5c6.4,0,12.9,1.2,23,3.9l0.3,20.1l-7.6,0.5
			C240.4,551,237.4,547.5,227.6,547.5L227.6,547.5z M312.1,629.7c-24,0-40.1-16.1-40.9-40.8c0-0.8,0-1.7,0-2.5
			c0-28.3,15.3-44.8,41.4-44.8c24.3,0,41.5,18.1,41.5,44.1C354.1,612.1,337.5,629.7,312.1,629.7L312.1,629.7z M310.1,548
			c-12.3,0-18.5,10.6-18.5,31.5c0,2.5,0,5,0.3,7.6c1.7,24,9.6,36.9,22.5,36.9c12.1,0,19.3-12.6,19.3-33.7
			C333.8,565.5,323.9,548,310.1,548L310.1,548z M429.1,627.9l0.3-4c8.9-1.3,9.9-3,9.9-18l0.2-10.6v-14.9c0-21.1-3.9-28.2-14.8-28.2
			c-6.5,0-12.1,3.5-15.4,9.7c-1.3,2.5-2.5,6.5-2.5,8.2v25.2v10.6c0.2,14.9,1,16.6,9.9,18l0.5,4c-9.2-0.3-33-0.3-43,0l0.3-4
			c11.2,0,12.9-2.2,12.9-18v-10.6v-17.6V567c0-15.6-1.7-17.8-12.9-17.9l-0.3-3.9c14.9-0.8,18.3-1.3,31-4l0.8,15.1
			c9.6-10.7,16.9-14.6,27.2-14.6c16.3,0,25.5,10.6,25.5,29.5v20.3c0,9.4,0,14.1,0,14.4c-0.2,1.3-0.2,2.7-0.2,4
			c0,10.7,2.8,13.9,13.1,13.9l0.3,4C461.9,627.5,438,627.5,429.1,627.9L429.1,627.9z M527.7,629.7c-24,0-40.1-16.1-40.9-40.8
			c0-0.8,0-1.7,0-2.5c0-28.3,15.3-44.8,41.4-44.8c24.3,0,41.4,18.1,41.4,44.1C569.6,612.1,553,629.7,527.7,629.7L527.7,629.7z
			 M525.7,548c-12.2,0-18.5,10.6-18.5,31.5c0,2.5,0,5,0.3,7.6c1.7,24,9.6,36.9,22.5,36.9c12.1,0,19.3-12.6,19.3-33.7
			C549.3,565.5,539.4,548,525.7,548L525.7,548L525.7,548z M695.1,627.9l0.3-4c8.9-1.3,9.7-3,9.9-18v-10.6v-14.9
			c0-20.8-3.7-28.2-14.1-28.2c-6.2,0-12.6,4-15.3,9.7c-0.8,2-1.7,4-2.2,6.4c-0.2,0.8-0.3,1.5-0.3,1.8v25.2v10.6
			c0,14.9,1,16.6,9.9,18l0.3,4c-9.1-0.3-31.2-0.3-39.8,0l0.3-4c8.9-1.3,9.7-3,9.9-18v-10.6v-14.9c0-20.8-3.7-28.2-14.1-28.2
			c-6.4,0-12.1,3.7-15.3,9.7c-1.3,2.7-2.5,6.5-2.5,8.2v25.2v10.6c0.2,14.9,1,16.6,9.9,18l0.3,4c-9-0.3-32.8-0.3-42.8,0l0.3-4
			c11.2,0,12.9-2.2,12.9-18v-10.6v-17.6V567c0-15.6-1.7-17.8-12.9-17.9l-0.3-3.9c14.9-0.8,18.3-1.3,31-4l0.8,15.1
			c9.6-10.6,16.9-14.6,26.8-14.6c11.4,0,18.1,4.7,23.2,15.9c10.2-11.7,17.8-15.9,28-15.9c15.9,0,25,10.7,25,29.5v20.3
			c0,9.2,0,13.9,0,14.4c0,1.3-0.2,2.7-0.2,4c0,10.7,3,13.9,13.1,13.9l0.3,4C727.7,627.5,704,627.5,695.1,627.9L695.1,627.9
			L695.1,627.9z M776.8,627.2c-5,0-12.6,0.3-22.8,0.7l0.3-4c11.2,0,12.9-2.2,12.9-17.9l0.2-10.6v-17.6l-0.2-10.7
			c0-15.6-1.7-17.8-12.9-17.9l-0.3-3.9c15.4-1,19-1.5,32.5-4v54.2l0.2,10.6c0,15.8,1.5,17.9,12.9,17.9l0.3,4
			C789.5,627.5,782,627.2,776.8,627.2L776.8,627.2z M776.1,524.5c-6.4,0-11.2-4.9-11.2-11.4c0-6.4,5-11.4,11.2-11.4
			c6.2,0,11.2,5.2,11.2,11.4C787.3,519.5,782.5,524.5,776.1,524.5L776.1,524.5z M847.9,547.5c-7.6,0-12.9,4.3-12.9,10.6
			c0,5.9,2.7,9.4,11.4,14.9c7.9,5.2,14.1,9.9,18.3,13.6c4.7,4.5,7.4,10.2,7.4,16.8c0,14.9-12.6,26.3-28.7,26.3
			c-6.2,0-12.1-1.3-22.8-4.9l-0.7-17.1l8.6-0.3c3.9,12.9,6.4,15.4,15.3,15.4c7.7,0,12.7-4,12.7-10.1c0-5.7-3.5-10.1-14.1-17.3
			c-5.4-3.7-9.1-6.2-11.1-7.7c-4.4-3.4-7.5-7.4-9.2-11.9c-1-2.5-1.5-5.5-1.5-9.1c0-15.3,10.4-25.2,26.2-25.2c5.9,0,9.2,0.5,22.8,3.7
			l0.3,16.9l-8.6,0.3C859.3,551.4,855.8,547.5,847.9,547.5L847.9,547.5z M933.8,621c2.7,0,5.2-0.3,9.2-1.5v4.9
			c-5.7,3.2-13.6,5-21.6,5c-7.4,0-14.4-4.2-17.5-10.4c-2.5-5.2-3.3-10.4-3.3-21.8v-43h-10.7v-7.7c13.3-1,18.4-6.7,22.3-24.2h7.6V545
			h21.1l-2.3,9.2h-18.8v41.3C919.7,616.1,922.3,621,933.8,621L933.8,621z"/>
	</g>
</g>
</svg>
