<?xml version="1.0" encoding="utf-8"?>
<!-- Generator: Adobe Illustrator 17.1.0, SVG Export Plug-In . SVG Version: 6.00 Build 0)  -->
<!DOCTYPE svg PUBLIC "-//W3C//DTD SVG 1.1//EN" "http://www.w3.org/Graphics/SVG/1.1/DTD/svg11.dtd">
<svg version="1.1" id="Layer_1" xmlns="http://www.w3.org/2000/svg" xmlns:xlink="http://www.w3.org/1999/xlink" x="0px" y="0px"
	 viewBox="0 0 1024 1024" enable-background="new 0 0 1024 1024" xml:space="preserve">
<g>
	<path d="M578.5,295c0,0-101.6,0-137.6,0c-69.8,0-128.1,51.3-128.1,108c0,57.9,38.3,103.9,104,103.9
		c4.6,0,9-0.3,13.3-0.6c-4.3,8.2-7.3,17.2-7.3,26.8c0,16.1,8.8,25.2,19.8,35.8c-8.3,0-16.2,0.2-25,0.2c-80,0-136,55.1-136,107.9
		c0,52,67.5,84.5,147.5,84.5c91.2,0,147.2-51.7,147.2-103.8c0-41.7-9-62.7-53.4-96c-12.8-9.6-40.5-29.2-40.5-42.4
		c0-15.4,4.4-23,27.6-41.2c23.8-18.6,40.6-43,40.6-73.5c0-33.2-13.5-63.7-39.1-77.7h36.1L578.5,295z M531.9,648.8
		c1.1,4.8,1.8,9.7,1.8,14.8c0,42.1-27.1,74.9-104.8,74.9c-55.3,0-95.2-35-95.2-77c0-41.2,46.8-76.7,102.1-76.1
		c12.9,0.1,24.9,2.2,35.8,5.7C501.6,612,525.8,625,531.9,648.8z M443.4,485.7c-37.1-1.1-72.4-35.2-78.8-83.9
		c-6.4-48.7,18.5-86,55.6-84.9c37.1,1.1,68.8,41.1,75.2,89.8C501.8,455.4,480.5,486.8,443.4,485.7z"/>
	<polygon points="685,364 685,301 653,301 653,364 590,364 590,396 653,396 653,460 685,460 685,396 748,396 
		748,364 	"/>
</g>
</svg>
