<svg xmlns="http://www.w3.org/2000/svg" viewBox="0 0 100 100">
    <path d="M70 57.2c-3-2-8.8-6.2-8.8-9 0-3.4 1-5 6-9s8.6-9 8.6-15.6c0-7-3-13.6-8.3-16.7h7.7l6.6-7H52.3C37.3 0 25 11 25 23.2c0 12.3 8 22.2 22.2 22.2H50C49 47 48.4 49 48.4 51c0 3.5 2 5.5 4.3 7.7h-5.4c-17 0-29 12-29 23.2 0 11 14.4 18 31.5 18 19.5 0 31.5-11 31.5-22.2 0-9-2-13.4-11.4-20.6zM52 41c-8-.3-15.4-7.6-16.8-18-1.4-10.5 4-18.4 12-18.2C55 5 61.8 13.6 63 24c1.4 10.4-3.2 17.2-11 17zm-3 54c-12 0-20.4-7.4-20.4-16.4 0-9 10-16.5 22-16.3 2.6 0 5.2.5 7.5 1.2C64.6 68 69.8 70.8 71 76c.3 1 .4 2 .4 3 0 9-5.8 16-22.4 16z"/>
</svg>
