<?xml version="1.0" encoding="utf-8"?>
<!-- Generator: Adobe Illustrator 17.1.0, SVG Export Plug-In . SVG Version: 6.00 Build 0)  -->
<!DOCTYPE svg PUBLIC "-//W3C//DTD SVG 1.1//EN" "http://www.w3.org/Graphics/SVG/1.1/DTD/svg11.dtd">
<svg version="1.1" id="Layer_1" xmlns="http://www.w3.org/2000/svg" xmlns:xlink="http://www.w3.org/1999/xlink" x="0px" y="0px"
	 viewBox="0 0 1024 1024" enable-background="new 0 0 1024 1024" xml:space="preserve">
<g>
	<g>
		<rect x="279.9" y="395.2" width="99.9" height="300.5"/>
		<path d="M329.8,354.2h-0.7c-33.5,0-55.2-23.1-55.2-51.9c0-29.5,22.4-51.9,56.5-51.9c34.2,0,55.2,22.5,55.9,51.9
			C386.3,331.1,364.7,354.2,329.8,354.2z"/>
		<path d="M740,695.7h-99.9V534.9c0-40.4-14.4-68-50.6-68c-27.6,0-44,18.7-51.3,36.6c-2.6,6.4-3.3,15.3-3.3,24.3
			v167.8h-99.9c0,0,1.3-272.3,0-300.5h99.9v42.6c13.3-20.5,37-49.6,90-49.6c65.7,0,115,42.9,115,135.2V695.7z"/>
	</g>
</g>
</svg>
