<?xml version="1.0" encoding="utf-8"?>
<!-- Generator: Adobe Illustrator 17.1.0, SVG Export Plug-In . SVG Version: 6.00 Build 0)  -->
<!DOCTYPE svg PUBLIC "-//W3C//DTD SVG 1.1//EN" "http://www.w3.org/Graphics/SVG/1.1/DTD/svg11.dtd">
<svg version="1.1" id="Layer_1" xmlns="http://www.w3.org/2000/svg" xmlns:xlink="http://www.w3.org/1999/xlink" x="0px" y="0px"
	 viewBox="0 0 1024 1024" enable-background="new 0 0 1024 1024" xml:space="preserve">
<g>
	<path d="M737.5,680.7l-113.9-96.9c-11.8-10.6-24.4-15.5-34.5-15c26.9-31.5,43.1-72.3,43.1-117
		c0-99.6-80.7-180.3-180.3-180.3c-99.6,0-180.3,80.7-180.3,180.3c0,99.6,80.7,180.3,180.3,180.3c44.6,0,85.5-16.2,117-43.1
		c-0.5,10.2,4.4,22.8,15,34.5l96.9,113.9c16.6,18.4,43.7,20,60.2,3.5C757.4,724.4,755.9,697.3,737.5,680.7L737.5,680.7z
		 M451.9,572.1c-66.4,0-120.2-53.8-120.2-120.2c0-66.4,53.8-120.2,120.2-120.2c66.4,0,120.2,53.8,120.2,120.2
		C572.1,518.3,518.3,572.1,451.9,572.1L451.9,572.1z M451.9,572.1"/>
</g>
</svg>
