<?xml version="1.0" encoding="utf-8"?>
<!-- Generator: Adobe Illustrator 17.1.0, SVG Export Plug-In . SVG Version: 6.00 Build 0)  -->
<!DOCTYPE svg PUBLIC "-//W3C//DTD SVG 1.1//EN" "http://www.w3.org/Graphics/SVG/1.1/DTD/svg11.dtd">
<svg version="1.1" id="Layer_1" xmlns="http://www.w3.org/2000/svg" xmlns:xlink="http://www.w3.org/1999/xlink" x="0px" y="0px"
   viewBox="0 0 1024 1024" enable-background="new 0 0 1024 1024" xml:space="preserve">
<path d="M685.2,352c-116.2,0.1-232.6,0-348.9,0c-26.2,0-47.5,21.2-47.5,47.5c0.6,72,0,148.2,0,221.5
  c0,25.3,19.7,45.7,44.5,47.2l353.1,0.2c25.3-1,45.5-21.9,45.5-47.5V391.3C728.1,368.9,708.6,352,685.2,352z M686.7,376.9
  L516.8,546.8c-3.1,3.1-8,3.1-11.1,0L335.6,376.9H686.7z M326.7,643.2c-8.3-2.8-11.2-9.5-11.4-18.5V390l132.3,132.3L326.7,643.2z
   M358.6,644.7l105.8-105.8l41.3,41.5c3.1,3.1,8,3.1,11.1,0l40.1-40.1l104.3,104.3H358.6z M708.2,619.2c0,13.7-4.9,21.5-14.8,24.2
  L573.7,523.5L708.2,389V619.2z"/>
</svg>