<?xml version="1.0" encoding="utf-8"?>
<!-- Generator: Adobe Illustrator 17.1.0, SVG Export Plug-In . SVG Version: 6.00 Build 0)  -->
<!DOCTYPE svg PUBLIC "-//W3C//DTD SVG 1.1//EN" "http://www.w3.org/Graphics/SVG/1.1/DTD/svg11.dtd">
<svg version="1.1" id="Layer_1" xmlns="http://www.w3.org/2000/svg" xmlns:xlink="http://www.w3.org/1999/xlink" x="0px" y="0px"
	 viewBox="0 0 1024 1024" enable-background="new 0 0 1024 1024" xml:space="preserve">
<g>
	<g>
		<path d="M348.3,623.8c0,28.9,23.4,52.3,52.2,52.3c28.9,0,52.3-23.4,52.3-52.3c0-28.9-23.4-52.2-52.3-52.2
			C371.6,571.6,348.3,595,348.3,623.8z"/>
		<path d="M348,492.2c49,0,95.1,18.9,129.7,53.7c34.6,34.8,53.9,81.1,53.9,130.1h75.4c0-143-115.9-259.2-258.9-259.2
			V492.2z"/>
		<path d="M664.7,677h75.4c0-217.5-175.1-393.9-391.1-393.9v75.4C523,358.5,664.7,501.4,664.7,677z"/>
	</g>
</g>
</svg>
