<?xml version="1.0" encoding="utf-8"?>
<!-- Generator: Adobe Illustrator 17.1.0, SVG Export Plug-In . SVG Version: 6.00 Build 0)  -->
<!DOCTYPE svg PUBLIC "-//W3C//DTD SVG 1.1//EN" "http://www.w3.org/Graphics/SVG/1.1/DTD/svg11.dtd">
<svg version="1.1" id="Layer_1" xmlns="http://www.w3.org/2000/svg" xmlns:xlink="http://www.w3.org/1999/xlink" x="0px" y="0px"
	 viewBox="0 0 1024 1024" enable-background="new 0 0 1024 1024" xml:space="preserve">
<path fill-rule="evenodd" clip-rule="evenodd" d="M598,571c-20.1,0-37.9,10.1-48.5,25.5l-130.7-69.2
	c1.3-4.9,2.3-10,2.3-15.3s-0.9-10.4-2.3-15.3l130.7-69.2c10.7,15.4,28.4,25.5,48.5,25.5c32.6,0,59-26.4,59-59s-26.4-59-59-59
	s-59,26.4-59,59c0,0.6,0.2,1.1,0.2,1.6l-137.6,72.9C391.1,459,377.3,453,362,453c-32.6,0-59,26.4-59,59s26.4,59,59,59
	c15.3,0,29.1-6,39.6-15.5l137.6,72.9c0,0.6-0.2,1.1-0.2,1.6c0,32.6,26.4,59,59,59s59-26.4,59-59S630.6,571,598,571z"/>
</svg>
