<?xml version="1.0" encoding="utf-8"?>
<!-- Generator: Adobe Illustrator 17.1.0, SVG Export Plug-In . SVG Version: 6.00 Build 0)  -->
<!DOCTYPE svg PUBLIC "-//W3C//DTD SVG 1.1//EN" "http://www.w3.org/Graphics/SVG/1.1/DTD/svg11.dtd">
<svg version="1.1" id="Layer_1" xmlns="http://www.w3.org/2000/svg" xmlns:xlink="http://www.w3.org/1999/xlink" x="0px" y="0px"
	 viewBox="0 0 1024 1024" enable-background="new 0 0 1024 1024" xml:space="preserve">
<path d="M692.1,459.7c0.2,4,0.3,8,0.3,12c0,122.8-93.5,264.4-264.4,264.4c-52.5,0-101.3-15.4-142.5-41.7
	c7.3,0.8,14.7,1.3,22.2,1.3c43.6,0,83.6-14.8,115.4-39.8c-40.6-0.8-75-27.6-86.8-64.5c5.7,1.1,11.5,1.7,17.5,1.7
	c8.5,0,16.7-1.2,24.5-3.3c-42.5-8.6-74.5-46.1-74.5-91.1c0-0.4,0-0.8,0-1.2c12.5,7,26.9,11.1,42.1,11.6
	c-24.9-16.6-41.3-45.1-41.3-77.4c0-17,4.6-33,12.6-46.7c59.4,74.4,133.9,119.4,191.5,97.1c-1.6-6.8-2.4-13.9-2.4-21.2
	c0-51.3,41.6-92.9,92.9-92.9c26.7,0,50.9,11.3,67.8,29.3c21.1-4.1,41.1-11.9,59-22.6c-7,21.7-21.7,39.9-40.9,51.4
	c18.8-2.2,36.7-7.2,53.4-14.6C726,430.2,710.3,446.6,692.1,459.7z"/>
</svg>
