<?xml version="1.0" encoding="utf-8"?>
<!-- Generator: Adobe Illustrator 17.1.0, SVG Export Plug-In . SVG Version: 6.00 Build 0)  -->
<!DOCTYPE svg PUBLIC "-//W3C//DTD SVG 1.1//EN" "http://www.w3.org/Graphics/SVG/1.1/DTD/svg11.dtd">
<svg version="1.1" id="Layer_1" xmlns="http://www.w3.org/2000/svg" xmlns:xlink="http://www.w3.org/1999/xlink" x="0px" y="0px"
	 viewBox="0 0 1024 1024" enable-background="new 0 0 1024 1024" xml:space="preserve">
<g>
	<path d="M573.2,608.5c-12.2-1.9-12.5-35.5-12.5-35.5s35.9-35.5,43.7-83.3c21,0,34-50.8,13-68.7
		c0.9-18.8,27-147.7-105.4-147.7c-132.5,0-106.3,128.9-105.4,147.7c-21,17.9-8,68.7,13,68.7c7.8,47.8,43.7,83.3,43.7,83.3
		s-0.3,33.6-12.5,35.5c-39.3,6.3-186.3,71.1-186.3,142.1h495C759.5,679.6,612.6,614.8,573.2,608.5L573.2,608.5z M573.2,608.5"/>
</g>
</svg>
