<?xml version="1.0" encoding="utf-8"?>
<!-- Generator: Adobe Illustrator 17.1.0, SVG Export Plug-In . SVG Version: 6.00 Build 0)  -->
<!DOCTYPE svg PUBLIC "-//W3C//DTD SVG 1.1//EN" "http://www.w3.org/Graphics/SVG/1.1/DTD/svg11.dtd">
<svg version="1.1" id="Layer_1" xmlns="http://www.w3.org/2000/svg" xmlns:xlink="http://www.w3.org/1999/xlink" x="0px" y="0px"
	 viewBox="0 0 1024 1024" enable-background="new 0 0 1024 1024" xml:space="preserve">
<g>
	<g>
		<path fill-rule="evenodd" clip-rule="evenodd" d="M751.3,498.4c0,128.3-104.8,232.4-234.2,232.4
			c-41.1,0-79.7-10.5-113.2-28.9L274.2,743l42.3-124.7c-21.3-35-33.6-76.1-33.6-120C282.9,370,387.7,266,517.1,266
			C646.4,266,751.3,370,751.3,498.4L751.3,498.4z M517.1,303c-108.6,0-196.9,87.6-196.9,195.4c0,42.7,13.9,82.3,37.5,114.6
			l-24.6,72.5l75.7-24c31.1,20.4,68.3,32.3,108.3,32.3c108.5,0,196.9-87.6,196.9-195.4C714,390.6,625.6,303,517.1,303L517.1,303z
			 M635.3,551.9c-1.5-2.4-5.3-3.8-11-6.7c-5.7-2.8-34-16.6-39.2-18.5c-5.3-1.9-9.1-2.8-12.9,2.8c-3.8,5.7-14.8,18.5-18.2,22.3
			c-3.3,3.8-6.7,4.3-12.4,1.4c-5.8-2.8-24.3-8.9-46.2-28.3c-17.1-15.1-28.6-33.8-31.9-39.4c-3.3-5.7-0.3-8.8,2.5-11.6
			c2.6-2.6,5.8-6.7,8.6-10c2.9-3.3,3.8-5.7,5.7-9.5c1.9-3.8,1-7.1-0.5-10c-1.4-2.8-12.9-30.9-17.7-42.3c-4.8-11.4-9.5-9.5-12.9-9.5
			c-3.3,0-7.2-0.5-11-0.5c-3.8,0-10,1.4-15.3,7.1c-5.3,5.7-20.1,19.5-20.1,47.5c0,28,20.6,55.1,23.4,58.9c2.9,3.8,39.7,63.2,98.1,86
			c58.4,22.8,58.4,15.2,68.9,14.2c10.5-0.9,34-13.8,38.7-27.1C636.8,565.7,636.8,554.3,635.3,551.9L635.3,551.9z M635.3,551.9"/>
	</g>
</g>
</svg>
