<svg xmlns="http://www.w3.org/2000/svg" viewBox="0 0 100 100">
    <path d="M100 48.8c0 26.8-22 48.6-49 48.6-8.7 0-16.8-2.2-23.8-6L0 100l9-26c-4.6-7.4-7.2-16-7.2-25.2 0-27 22-48.7 49-48.7s49 22 49 48.8zm-49-41C28 8 9.5 26.3 9.5 49c0 9 3 17.2 8 24l-5.3 15 16-5c6.4 4.4 14.2 7 22.6 7 22.6 0 41-18.5 41-41 0-22.6-18.4-41-41-41zM75.5 60c-.3-.5-1-.8-2.3-1.4l-8.2-4c-1-.3-1.8-.5-2.6.7s-3 4-3.8 4.7c-.7.8-1.4 1-2.6.3-1.2-.6-5-2-9.7-6-3.6-3-6-7-6.7-8.2-.7-1 0-1.7.6-2.3l1.8-2c.6-.8.8-1.3 1.2-2 .4-1 .2-1.6 0-2.2-.4-.6-2.8-6.5-4-9-.8-2.2-2-1.8-2.6-1.8h-2.3s-2 .2-3.2 1.3c-1 1.2-4 4-4 10s4.2 11.5 4.8 12.3c.6.8 8.3 13.2 20.6 18 12.2 4.8 12.2 3.2 14.4 3 2.2-.2 7-3 8-5.7 1-2.8 1-5 .8-5.6z"/>
</svg>
